<?xml version="1.0" encoding="UTF-8" standalone="no"?>
<svg
   viewBox="0 0 2048 2048"
   version="1.1"
   id="svg1"
   sodipodi:docname="LOGO-FONDOBLANCO.svg"
   inkscape:version="1.4.4 (1:1.4.4+202605061436+dcaf3e7d9e)"
   inkscape:export-filename="logo_final.png"
   inkscape:export-xdpi="96"
   inkscape:export-ydpi="96"
   xmlns:inkscape="http://www.inkscape.org/namespaces/inkscape"
   xmlns:sodipodi="http://sodipodi.sourceforge.net/DTD/sodipodi-0.dtd"
   xmlns="http://www.w3.org/2000/svg"
   xmlns:svg="http://www.w3.org/2000/svg">
  <defs
     id="defs1">
    <rect
       x="366.01364"
       y="1251.7108"
       width="1153.9209"
       height="357.63165"
       id="rect2" />
  </defs>
  <sodipodi:namedview
     id="namedview1"
     pagecolor="#505050"
     bordercolor="#eeeeee"
     borderopacity="1"
     inkscape:showpageshadow="0"
     inkscape:pageopacity="0"
     inkscape:pagecheckerboard="0"
     inkscape:deskcolor="#505050"
     inkscape:zoom="0.25"
     inkscape:cx="756"
     inkscape:cy="1222"
     inkscape:window-width="1920"
     inkscape:window-height="941"
     inkscape:window-x="0"
     inkscape:window-y="32"
     inkscape:window-maximized="1"
     inkscape:current-layer="svg1" />
  <rect
     style="fill:#ffffff;stroke-width:1.277;stroke-opacity:0.217693"
     id="rect1"
     width="2036"
     height="2052"
     x="8"
     y="-4" />
  <path
     fill="#f5c226"
     d="m 1227.2163,290.70308 c -0.3796,-0.73749 270.2009,156.67566 270.2009,156.67566 v 26.50952 71.74753 283.93701 79.38025 l 0.2298,27.30034 c -54.5193,31.61996 -109.0456,63.22821 -163.57,94.83971 l -196.924,114.2456 -82.4333,48.6516 -91.77867,-51.7589 20.03112,-36.3543 c -0.36943,0.1261 68.69445,36.7537 68.69445,36.7537 l 29.0043,-15.9875 59.5352,-34.504 213.716,-123.87953 71.7475,-41.59364 25.6179,-16.50705 0.3334,-31.7369 c 0,0 0.7917,-404.43339 0.6054,-404.7553 0.6144,-0.45314 -157.8334,-91.95307 -236.0169,-139.19589 l 11.0097,-43.76791"
     id="path19"
     style="stroke-width:1.52654;paint-order:normal"
     sodipodi:nodetypes="cccccccccccccccccccccc" />
  <path
     fill="#f5c226"
     d="m 1118.8318,228.11481 -26.0939,34.64873 -49.7002,-25.5198 -292.47983,173.96412 -74.42362,45.88842 -28.08323,18.60121 c 0.0349,31.96575 -0.51615,63.92729 -0.9211,95.88952 v 233.56111 l 0.94248,74.61211 0.62646,30.21753 47.28045,28.63219 169.91393,100.67765 -9.62691,42.1648 -252.48506,-148.14062 -0.9211,-86.947 V 640.28146 l 0.75398,-101.97038 0.81496,-89.56719 30.48847,-19.14196 79.38024,-46.00818 236.61418,-137.80369 65.6414,-38.1304 32.0574,-17.82509 70.221,38.28024"
     id="path20"
     sodipodi:nodetypes="cccccccccccccccccccccccc"
     style="stroke-width:1.52654;fill:#333333;fill-opacity:1" />
  <path
     fill="#f5c226"
     d="m 1213.4774,164 -27.6544,108.38456 -60.7085,232.03455 -23.0747,90.06605 123.7866,0.84564 62.4516,0.68091 c -33.1458,59.53443 -78.8684,115.11573 -117.9712,170.97283 -67.1823,95.96741 -133.5531,192.49445 -200.6487,288.51666 -19.78505,28.3148 -38.59693,57.3698 -58.65182,85.4864 -14.62001,20.4969 -45.58069,64.1148 -45.58069,64.1148 0.31603,0.3871 7.16676,-28.752 10.86245,-42.7432 9.0444,-34.2397 19.35304,-68.1071 28.59679,-102.2784 25.75166,-95.19556 47.95204,-193.65162 79.61113,-286.99009 H 798.2577 L 840.47559,708.9759 942.75398,559.37468 1114.2511,309.0216 1183.8253,206.74321 1213.4774,164"
     id="path21"
     sodipodi:nodetypes="ccccccssscssccccccc"
     style="stroke-width:1.52654" />
  <path
     fill="#f5c226"
     d="m 1105.0929,399.08765 -53.3901,77.85371 -115.5521,169.44628 -53.93307,80.90679 53.42901,1.52654 h 106.85796 l -42.7822,154.18085 -22.8591,83.95988 c 1.17361,0.51487 39.6064,-54.83928 56.521,-79.38023 37.9585,-55.07315 77.1018,-109.3886 114.4518,-164.86667 19.415,-27.21606 55.6788,-83.77612 54.9555,-83.95988 h -158.7605 c 0,0 61.5893,-240.09976 61.0618,-239.66727"
     id="path22"
     style="fill:#333333;stroke-width:1.52654"
     sodipodi:nodetypes="ccccccccssccc" />
  <text
     xml:space="preserve"
     style="font-style:normal;font-variant:normal;font-weight:800;font-stretch:normal;font-size:53.3333px;font-family:Montserrat;-inkscape-font-specification:'Montserrat Ultra-Bold';writing-mode:lr-tb;direction:ltr;opacity:0;fill:#000000"
     x="712.4693"
     y="1338.3247"
     id="text1"><tspan
       sodipodi:role="line"
       id="tspan1"
       x="712.4693"
       y="1338.3247" /></text>
  <path
     style="opacity:0;fill:#00ff00;stroke-width:4.26516"
     d="m 830.59556,1066.7901 c -10.49363,-6.4288 -65.19428,-38.5806 -121.55699,-71.4483 l -102.47762,-59.75941 -1.10143,-241.77483 -1.10139,-241.77478 9.63172,-6.83904 c 5.29745,-3.76149 100.79946,-59.81004 212.22668,-124.55236 111.42724,-64.74231 207.50567,-120.60956 213.50767,-124.14944 10.3708,-6.11668 12.435,-5.53164 41.5853,11.78614 16.87,10.02227 30.6725,20.10658 30.6725,22.40958 0,8.66135 -14.8913,28.9581 -21.1791,28.86698 -3.5993,-0.0523 -11.3427,-3.84812 -17.2072,-8.43547 -21.9486,-17.16841 -22.8496,-16.75552 -232.45111,106.52046 -72.72094,42.77041 -146.13495,85.41647 -163.14227,94.76899 -17.00731,9.35253 -30.93815,19.23026 -30.95742,21.95053 -0.15359,21.67825 -0.29666,432.53072 -0.1519,436.19884 0.10287,2.6055 12.18271,11.09798 26.84417,18.87226 14.6615,7.77427 53.52773,29.83742 86.36945,49.02925 32.84171,19.1918 67.51787,38.869 77.05815,43.7271 26.16424,13.3233 29.69701,19.2193 23.6364,39.4478 -2.78902,9.3089 -6.43338,16.9071 -8.09859,16.8849 -1.66522,-0.022 -11.61337,-5.3003 -22.10701,-11.7292 z"
     id="path2" />
  <path
     style="opacity:0;fill:#f5c226;fill-opacity:1;stroke-width:4.26516"
     d="m 873.2281,1184.0873 c -0.0522,-1.7788 8.36817,-33.4475 18.71183,-70.3752 10.34367,-36.9276 30.45754,-111.2855 44.69748,-165.23972 14.23995,-53.95424 30.69932,-113.45317 36.57638,-132.21986 5.87707,-18.76671 10.71437,-36.52042 10.74957,-39.45273 0.0492,-4.09791 -20.65896,-5.33143 -89.5043,-5.33143 -49.26257,0 -89.5683,-1.07636 -89.5683,-2.39195 0,-5.10667 397.58794,-586.69324 399.66144,-584.61972 0.7714,0.77134 -3.3193,19.44476 -9.0902,41.49647 -5.771,22.05173 -28.9476,111.10893 -51.5035,197.90488 -22.5559,86.79594 -41.9863,161.16962 -43.1787,165.27483 -2.0172,6.94489 4.2299,7.46404 89.8202,7.46404 50.5937,0 91.9883,1.54539 91.9883,3.43422 0,4.28408 -45.6729,71.3211 -96.4606,141.58113 -21.1962,29.32295 -96.465,136.80492 -167.2639,238.84881 C 886.16197,1171.727 873.38935,1189.5854 873.2281,1184.0873 Z M 992.70808,953.80369 c 5.94732,-7.62387 17.41052,-24.41789 25.47392,-37.31999 8.0632,-12.9021 51.3951,-76.35045 96.2929,-140.99638 77.5378,-111.64249 91.3406,-132.5099 91.3406,-138.09103 0,-1.32714 -35.6368,-2.41298 -79.1927,-2.41298 -73.3956,0 -79.0359,-0.54639 -77.0477,-7.46401 6.3284,-22.02007 53.6439,-205.73531 56.0224,-217.52302 1.5385,-7.62397 1.7951,-13.86176 0.5702,-13.86176 -3.5197,0 -224.50411,325.24366 -224.50411,330.424 0,1.24205 35.63676,2.25826 79.19282,2.25826 73.40459,0 79.03429,0.54556 77.02409,7.46402 -10.4733,36.04468 -62.38346,226.11066 -62.38346,228.41308 0,6.63106 6.99626,2.20419 17.21104,-10.89019 z"
     id="path3" />
  <text
     xml:space="preserve"
     style="font-style:normal;font-variant:normal;font-weight:800;font-stretch:normal;font-size:374.296px;font-family:Montserrat;-inkscape-font-specification:'Montserrat Ultra-Bold';letter-spacing:16.8px;writing-mode:lr-tb;direction:ltr;opacity:1;fill:#f5c226;fill-opacity:1;stroke:none;stroke-width:1.94946;stroke-opacity:0.217693"
     x="276.2431"
     y="1756.4901"
     id="text4"><tspan
       sodipodi:role="line"
       id="tspan4"
       x="276.2431"
       y="1756.4901"
       style="font-style:normal;font-variant:normal;font-weight:800;font-stretch:normal;font-size:374.296px;font-family:Montserrat;-inkscape-font-specification:'Montserrat Ultra-Bold';letter-spacing:16.8px;writing-mode:lr-tb;direction:ltr;fill:#f5c226;fill-opacity:1;stroke:none;stroke-width:1.94946;stroke-opacity:0.217693">LAB</tspan></text>
  <text
     xml:space="preserve"
     style="font-style:normal;font-variant:normal;font-weight:800;font-stretch:normal;font-size:374.296px;font-family:Montserrat;-inkscape-font-specification:'Montserrat Ultra-Bold';writing-mode:lr-tb;direction:ltr;fill:#333333;fill-opacity:1;stroke:#000000;stroke-width:1.94946;stroke-opacity:0.217693"
     x="1112.9398"
     y="1755.4401"
     id="text4-9"><tspan
       sodipodi:role="line"
       id="tspan4-1"
       x="1112.9398"
       y="1755.4401"
       style="fill:#333333;fill-opacity:1;stroke:none;stroke-width:1.94946;stroke-opacity:0.217693">263</tspan></text>
  <text
     xml:space="preserve"
     style="font-weight:300;font-size:247.868px;line-height:0;font-family:'Ubuntu Sans';-inkscape-font-specification:'Ubuntu Sans Light';letter-spacing:20.6934px;word-spacing:0px;writing-mode:lr-tb;direction:ltr;fill:#333333;fill-opacity:1;stroke-width:1.29094;stroke-opacity:0.217693"
     x="287.86353"
     y="1455.9866"
     id="text2"><tspan
       sodipodi:role="line"
       id="tspan2"
       x="287.86353"
       y="1455.9866"
       style="font-style:normal;font-variant:normal;font-weight:300;font-stretch:normal;font-family:Montserrat;-inkscape-font-specification:'Montserrat Light';letter-spacing:20.6934px;fill:#333333;fill-opacity:1;stroke-width:1.29094">SERVICIOS</tspan></text>
</svg>
