<?xml version="1.0" encoding="UTF-8" standalone="no"?>
<svg
   viewBox="0 0 2048 2048"
   version="1.1"
   id="svg1"
   sodipodi:docname="LOGO-FONDOBLANCO.svg"
   inkscape:version="1.4.4 (1:1.4.4+202605061436+dcaf3e7d9e)"
   inkscape:export-filename="logo-solo-fondo-blanco .png"
   inkscape:export-xdpi="96"
   inkscape:export-ydpi="96"
   xmlns:inkscape="http://www.inkscape.org/namespaces/inkscape"
   xmlns:sodipodi="http://sodipodi.sourceforge.net/DTD/sodipodi-0.dtd"
   xmlns="http://www.w3.org/2000/svg"
   xmlns:svg="http://www.w3.org/2000/svg">
  <defs
     id="defs1">
    <rect
       x="366.01364"
       y="1251.7108"
       width="1153.9209"
       height="357.63165"
       id="rect2" />
  </defs>
  <sodipodi:namedview
     id="namedview1"
     pagecolor="#505050"
     bordercolor="#eeeeee"
     borderopacity="1"
     inkscape:showpageshadow="0"
     inkscape:pageopacity="0"
     inkscape:pagecheckerboard="0"
     inkscape:deskcolor="#505050"
     inkscape:zoom="0.25"
     inkscape:cx="756"
     inkscape:cy="1218"
     inkscape:window-width="1920"
     inkscape:window-height="941"
     inkscape:window-x="0"
     inkscape:window-y="32"
     inkscape:window-maximized="1"
     inkscape:current-layer="svg1"
     showguides="true" />
  <rect
     style="fill:#ffffff;stroke-width:1.277;stroke-opacity:0.217693"
     id="rect1"
     width="2036"
     height="2052"
     x="8"
     y="-4"
     sodipodi:insensitive="true" />
  <path
     fill="#f5c226"
     d="m 1245.5255,506.83799 c -0.4758,-0.92452 338.7303,196.4123 338.7303,196.4123 v 33.23306 89.94437 355.95018 99.5131 l 0.2881,34.2243 c -68.3467,39.6395 -136.7022,79.2644 -205.0552,118.8933 l -246.8688,143.221 -103.3402,60.9908 -115.05597,-64.8863 25.11149,-45.5746 c -0.46313,0.1581 86.11698,46.0754 86.11698,46.0754 l 36.3605,-20.0424 74.6347,-43.255 267.9195,-155.2983 89.9443,-52.1428 32.1153,-20.6935 0.418,-39.7863 c 0,0 0.9924,-507.00725 0.7589,-507.4108 0.7702,-0.56815 -197.8637,-115.2746 -295.8764,-174.4993 l 13.802,-54.86851"
     id="path19"
     style="stroke-width:1.9137;paint-order:normal"
     sodipodi:nodetypes="cccccccccccccccccccccc" />
  <path
     fill="#f5c226"
     d="m 1109.6521,428.37586 -32.712,43.43647 -62.3053,-31.99224 -366.65966,218.08562 -93.29922,57.52679 -35.2058,23.31891 c 0.0438,40.07296 -0.64706,80.14078 -1.15472,120.20936 v 292.79783 l 1.18152,93.5354 0.78534,37.8816 59.2719,35.8939 213.00814,126.2119 -12.06851,52.8588 -316.52129,-185.7126 -1.15471,-108.9989 V 945.07782 l 0.94521,-127.83252 1.02165,-112.28357 38.22107,-23.99687 99.51297,-57.67685 296.62516,-172.75405 82.28965,-47.80117 40.1879,-22.34596 88.0307,47.98903"
     id="path20"
     sodipodi:nodetypes="cccccccccccccccccccccccc"
     style="fill:#333333;fill-opacity:1;stroke-width:1.9137" />
  <path
     fill="#f5c226"
     d="m 1256.3022,316 -34.6683,135.87347 -76.1057,290.88402 -28.9269,112.909 155.1818,1.06006 78.2908,0.85361 c -41.5524,74.63374 -98.8713,144.31174 -147.8915,214.33554 -84.2213,120.307 -167.4253,241.3157 -251.538,361.6914 -24.803,35.4961 -48.38602,71.9202 -73.52731,107.1678 -18.32799,25.6954 -57.14104,80.3758 -57.14104,80.3758 0.39619,0.4853 8.98443,-36.0442 13.61744,-53.5838 11.33826,-42.9237 24.26142,-85.3807 35.8496,-128.2187 32.2829,-119.3395 60.11382,-242.7662 99.80241,-359.7776 H 735.77279 L 788.69814,999.1948 916.91676,811.65114 1131.9096,497.80253 1219.1294,369.5839 1256.3022,316"
     id="path21"
     sodipodi:nodetypes="ccccccssscssccccccc"
     style="stroke-width:1.9137" />
  <path
     fill="#f5c226"
     d="m 1092.4288,642.71154 -66.9312,97.59925 -144.85886,212.4218 -67.61178,101.42671 66.97988,1.9138 h 133.95966 l -53.63277,193.2847 -28.65671,105.2541 c 1.47126,0.6455 49.65158,-68.7478 70.85608,-99.5129 47.5857,-69.0411 96.6566,-137.1322 143.4795,-206.6809 24.3392,-34.1187 69.8003,-105.02364 68.8936,-105.25406 h -199.026 c 0,0 77.2098,-300.99469 76.5486,-300.4525"
     id="path22"
     style="fill:#333333;stroke-width:1.9137"
     sodipodi:nodetypes="ccccccccssccc" />
  <text
     xml:space="preserve"
     style="font-style:normal;font-variant:normal;font-weight:800;font-stretch:normal;font-size:53.3333px;font-family:Montserrat;-inkscape-font-specification:'Montserrat Ultra-Bold';writing-mode:lr-tb;direction:ltr;opacity:0;fill:#000000"
     x="712.4693"
     y="1338.3247"
     id="text1"><tspan
       sodipodi:role="line"
       id="tspan1"
       x="712.4693"
       y="1338.3247" /></text>
  <path
     style="opacity:0;fill:#00ff00;stroke-width:5.3469"
     d="m 748.3123,1479.7592 c -13.15507,-8.0593 -81.72911,-48.3656 -152.38674,-89.5693 l -128.46838,-74.9159 -1.38079,-303.0946 -1.38072,-303.09463 12.07456,-8.57365 c 6.641,-4.71539 126.3646,-74.97924 266.05241,-156.14176 139.68785,-81.1625 260.13406,-151.19902 267.65826,-155.63669 13.0011,-7.66802 15.5888,-6.93459 52.1324,14.77539 21.1486,12.56415 38.4517,25.20608 38.4517,28.09318 0,10.85808 -18.668,36.30256 -26.5506,36.18833 -4.5121,-0.0655 -14.2195,-4.82409 -21.5714,-10.5749 -27.5152,-21.52273 -28.6447,-21.00513 -291.40618,133.53658 -91.16471,53.61796 -183.19826,107.08012 -204.51904,118.80464 -21.32077,11.72464 -38.7848,24.10756 -38.80897,27.51779 -0.19253,27.17631 -0.37188,542.23082 -0.19041,546.82922 0.12895,3.2663 15.27253,13.9127 33.65249,23.6587 18.38,9.746 67.10363,37.4049 108.2748,61.4642 41.17115,24.0594 84.64201,48.7271 96.60192,54.8173 32.80012,16.7024 37.22889,24.0938 29.63116,49.4527 -3.49638,11.6698 -8.06504,21.1952 -10.15258,21.1674 -2.08756,-0.027 -14.55881,-6.6446 -27.71388,-14.704 z"
     id="path2" />
  <path
     style="opacity:0;fill:#f5c226;fill-opacity:1;stroke-width:5.3469"
     d="m 829.75746,1594.8057 c -0.0654,-2.2299 10.49054,-41.9305 23.45759,-88.224 12.96708,-46.2932 38.18231,-139.5102 56.03384,-207.1485 17.85153,-67.6383 38.4854,-142.2275 45.85302,-165.7539 7.36763,-23.5264 13.43178,-45.7828 13.47591,-49.4589 0.0616,-5.1373 -25.89856,-6.6835 -112.20472,-6.6835 -61.75673,0 -112.28495,-1.3495 -112.28495,-2.9986 0,-6.402 498.42565,-735.49272 501.02505,-732.8933 0.9671,0.96697 -4.1611,24.3764 -11.3957,52.02096 -7.2346,27.64457 -36.2894,139.2888 -64.566,248.09821 -28.2766,108.80954 -52.635,202.04618 -54.1298,207.19256 -2.5289,8.70629 5.3028,9.35704 112.6007,9.35704 63.4255,0 115.3188,1.93735 115.3188,4.30521 0,5.37063 -57.2567,89.40983 -120.9254,177.48962 -26.572,36.7598 -120.9308,171.5018 -209.686,299.4265 -166.35813,239.7754 -182.37019,262.1632 -182.57234,255.2706 z m 149.78295,-288.689 c 7.4557,-9.5575 21.82629,-30.6109 31.93469,-46.7852 10.1082,-16.1745 64.4302,-95.7148 120.7152,-176.7564 97.2032,-139.95774 114.5067,-166.11763 114.5067,-173.11423 0,-1.66381 -44.6751,-3.02499 -99.2779,-3.02499 -92.0105,0 -99.0813,-0.68498 -96.5888,-9.35705 7.9334,-27.60491 67.2492,-257.91467 70.2309,-272.69201 1.9288,-9.55764 2.2505,-17.37748 0.7148,-17.37748 -4.4123,0 -281.4436,407.73326 -281.4436,414.22736 0,1.5572 44.67509,2.8311 99.278,2.8311 92.0217,0 99.0793,0.6839 96.5592,9.357 -13.1296,45.1865 -78.20536,283.4577 -78.20536,286.3441 0,8.3128 8.77069,2.7632 21.57617,-13.6522 z"
     id="path3" />
</svg>
