<?xml version="1.0" encoding="UTF-8" standalone="no"?>
<svg
   viewBox="0 0 2048 2048"
   version="1.1"
   id="svg1"
   sodipodi:docname="logo-solo fondo negro.svg"
   inkscape:version="1.4.4 (1:1.4.4+202605061436+dcaf3e7d9e)"
   inkscape:export-filename="logosolo_fondonegro.png"
   inkscape:export-xdpi="96"
   inkscape:export-ydpi="96"
   xmlns:inkscape="http://www.inkscape.org/namespaces/inkscape"
   xmlns:sodipodi="http://sodipodi.sourceforge.net/DTD/sodipodi-0.dtd"
   xmlns="http://www.w3.org/2000/svg"
   xmlns:svg="http://www.w3.org/2000/svg">
  <defs
     id="defs1">
    <rect
       x="366.01364"
       y="1251.7108"
       width="1153.9209"
       height="357.63165"
       id="rect2" />
  </defs>
  <sodipodi:namedview
     id="namedview1"
     pagecolor="#505050"
     bordercolor="#eeeeee"
     borderopacity="1"
     inkscape:showpageshadow="0"
     inkscape:pageopacity="0"
     inkscape:pagecheckerboard="0"
     inkscape:deskcolor="#505050"
     inkscape:zoom="0.25"
     inkscape:cx="944"
     inkscape:cy="1222"
     inkscape:window-width="1920"
     inkscape:window-height="941"
     inkscape:window-x="0"
     inkscape:window-y="32"
     inkscape:window-maximized="1"
     inkscape:current-layer="svg1" />
  <rect
     style="fill:#333333;stroke-width:1.277;stroke-opacity:0.217693"
     id="rect1"
     width="2036"
     height="2052"
     x="8"
     y="-4"
     sodipodi:insensitive="true" />
  <path
     fill="#f5c226"
     d="m 1255.931,532.99037 c -0.4583,-0.89049 326.26,189.18142 326.26,189.18142 v 32.00949 86.63311 342.84591 95.8494 l 0.2774,32.9644 c -65.8305,38.1802 -131.6694,76.3462 -197.5061,114.5162 l -237.7801,137.9483 -99.5359,58.7455 -110.82015,-62.4974 24.18701,-43.8968 c -0.44607,0.1522 82.94664,44.379 82.94664,44.379 l 35.0218,-19.3044 71.8871,-41.6626 258.056,-149.581 86.6331,-50.2232 30.9329,-19.9318 0.4025,-38.3214 c 0,0 0.956,-488.34183 0.731,-488.73053 0.7419,-0.54715 -190.5793,-111.03072 -284.9837,-168.07509 l 13.2939,-52.84851"
     id="path19"
     style="stroke-width:1.84325;paint-order:normal"
     sodipodi:nodetypes="cccccccccccccccccccccc" />
  <path
     fill="#f5c226"
     d="m 1125.0598,457.41681 -31.5076,41.83736 -60.0116,-30.81443 -353.16109,210.05674 -89.86441,55.40896 -33.9097,22.46044 c 0.0421,38.59773 -0.62324,77.19038 -1.1122,115.78387 v 282.01835 l 1.13802,90.092 0.75643,36.4869 57.0898,34.5726 205.16625,121.5653 -11.62422,50.9128 -304.86855,-178.8755 -1.1122,-104.9861 V 955.09635 l 0.91041,-123.12634 0.98404,-108.14984 36.81396,-23.11338 95.84939,-55.55357 285.70491,-166.39404 79.26016,-46.04138 38.7084,-21.52329 84.7898,46.2223"
     id="path20"
     sodipodi:nodetypes="cccccccccccccccccccccccc"
     style="fill:#ffffff;stroke-width:1.84325" />
  <path
     fill="#f5c226"
     d="m 1239.3417,380 -33.3919,130.87128 -73.3038,280.17514 -27.862,108.7522 149.4688,1.02108 75.4085,0.82218 c -40.0226,71.88614 -95.2313,138.99892 -142.4469,206.44482 -81.1207,115.8779 -161.2615,232.4316 -242.27758,348.3757 -23.88988,34.1893 -46.60469,69.2724 -70.8204,103.2224 -17.65325,24.7494 -55.03739,77.4168 -55.03739,77.4168 0.38159,0.4674 8.65365,-34.7172 13.1161,-51.6112 10.92085,-41.3435 23.36824,-82.2374 34.52981,-123.4983 31.0944,-114.9459 57.90073,-233.8288 96.12818,-346.5324 H 737.9757 L 788.95261,1038.0429 912.45086,857.40371 1119.5288,555.10947 1203.5376,431.61121 1239.3417,380"
     id="path21"
     sodipodi:nodetypes="ccccccssscssccccccc"
     style="stroke-width:1.84325" />
  <path
     fill="#f5c226"
     d="m 1108.4705,663.86167 -64.467,94.00614 -139.52591,204.60158 -65.12265,97.69261 64.51401,1.8433 h 129.02795 l -51.6583,186.169 -27.6017,101.3792 c 1.4171,0.6217 47.8236,-66.2169 68.2475,-95.8494 45.8338,-66.4993 93.0982,-132.0836 138.1973,-199.0718 23.4431,-32.8627 67.2306,-101.15732 66.3572,-101.3792 h -191.6988 c 0,0 74.3673,-289.91365 73.7304,-289.39143"
     id="path22"
     style="fill:#333333;stroke-width:1.84325"
     sodipodi:nodetypes="ccccccccssccc" />
  <text
     xml:space="preserve"
     style="font-style:normal;font-variant:normal;font-weight:800;font-stretch:normal;font-size:53.3333px;font-family:Montserrat;-inkscape-font-specification:'Montserrat Ultra-Bold';writing-mode:lr-tb;direction:ltr;opacity:0;fill:#000000"
     x="712.4693"
     y="1338.3247"
     id="text1"><tspan
       sodipodi:role="line"
       id="tspan1"
       x="712.4693"
       y="1338.3247" /></text>
  <path
     style="opacity:0;fill:#00ff00;stroke-width:5.15006"
     d="m 777.02275,1470.0934 c -12.67076,-7.7626 -78.72024,-46.5849 -146.77661,-86.2718 l -123.73882,-72.1577 -1.32995,-291.9363 -1.3299,-291.93619 11.63003,-8.25795 c 6.39652,-4.54189 121.71249,-72.21892 256.2577,-150.39344 134.54523,-78.1745 250.5572,-145.63262 257.8045,-149.90692 12.5224,-7.38572 15.0149,-6.6793 50.213,14.23143 20.3701,12.1016 37.0362,24.27812 37.0362,27.05893 0,10.45833 -17.9808,34.96608 -25.5732,34.85606 -4.346,-0.0632 -13.696,-4.6465 -20.7772,-10.18559 -26.5023,-20.73037 -27.5902,-20.23182 -280.67809,128.62043 -87.80847,51.64406 -176.45381,103.13796 -196.98967,114.43087 -20.53584,11.29291 -37.35693,23.21999 -37.3802,26.50464 -0.18546,26.17587 -0.35821,522.26863 -0.18342,526.69773 0.12422,3.1461 14.71028,13.4005 32.41358,22.7876 17.70334,9.3873 64.63321,36.028 104.28866,59.2015 39.65543,23.1736 81.52591,46.9333 93.04553,52.7993 31.59257,16.0875 35.85829,23.2067 28.54028,47.6321 -3.36766,11.2402 -7.76812,20.4148 -9.77882,20.388 -2.0107,-0.027 -14.02281,-6.4 -26.69359,-14.1627 z"
     id="path2" />
  <path
     style="opacity:0;fill:#f5c226;fill-opacity:1;stroke-width:5.15006"
     d="m 828.50033,1611.7265 c -0.063,-2.1479 10.10433,-40.3869 22.59401,-84.9761 12.48969,-44.589 36.77661,-134.3741 53.97094,-199.5222 17.19433,-65.1483 37.06856,-136.9916 44.16494,-159.6518 7.09639,-22.6603 12.9373,-44.0974 12.9798,-47.638 0.0594,-4.9481 -24.94511,-6.4375 -108.0739,-6.4375 -59.48316,0 -108.15118,-1.2998 -108.15118,-2.8883 0,-6.1662 480.07616,-708.41544 482.57986,-705.91173 0.9314,0.93137 -4.008,23.479 -10.9762,50.10581 -6.9683,26.62684 -34.9534,134.16088 -62.189,238.96453 -27.2356,104.80363 -50.6973,194.60774 -52.137,199.56467 -2.4358,8.38576 5.1074,9.01261 108.4553,9.01261 61.0905,0 111.0733,1.86602 111.0733,4.14673 0,5.1729 -55.1488,86.1182 -116.4735,170.95528 -25.5938,35.4065 -116.4787,165.188 -201.9664,288.4031 -160.23368,230.9482 -175.65626,252.5117 -175.85097,245.8729 z m 144.26871,-278.0609 c 7.1812,-9.2057 21.02266,-29.484 30.75906,-45.0629 9.736,-15.5789 62.0581,-92.191 116.2709,-170.2491 93.6247,-134.80515 110.2912,-160.00196 110.2912,-166.74101 0,-1.60249 -43.0304,-2.91361 -95.623,-2.91361 -88.6231,0 -95.4336,-0.65975 -93.0329,-9.01258 7.6414,-26.58861 64.7735,-248.41955 67.6455,-262.65287 1.8577,-9.20573 2.1675,-16.73768 0.6885,-16.73768 -4.2499,0 -271.08235,392.72255 -271.08235,398.97755 0,1.4998 43.03038,2.7269 95.62308,2.7269 88.63397,0 95.43167,0.6586 93.00437,9.0125 -12.6462,43.523 -75.32622,273.0223 -75.32622,275.8024 0,8.0067 8.44778,2.6615 20.78186,-13.1496 z"
     id="path3" />
</svg>
